<?xml version="1.0" standalone="no"?>
<!DOCTYPE svg PUBLIC "-//W3C//DTD SVG 20010904//EN"
 "http://www.w3.org/TR/2001/REC-SVG-20010904/DTD/svg10.dtd">
<svg version="1.0" xmlns="http://www.w3.org/2000/svg"
 width="224.000000pt" height="224.000000pt" viewBox="0 0 224.000000 224.000000"
 preserveAspectRatio="xMidYMid meet">
<metadata>
Created by potrace 1.16, written by Peter Selinger 2001-2019
</metadata>
<g transform="translate(0.000000,224.000000) scale(0.100000,-0.100000)"
fill="#000000" stroke="none">
<path d="M1060 1484 c-103 -23 -156 -42 -300 -109 -85 -40 -214 -88 -350 -130
-118 -37 -225 -73 -238 -81 -13 -9 -32 -35 -42 -59 -10 -23 -23 -46 -29 -49
-6 -4 -11 -23 -11 -42 l0 -34 64 0 65 0 23 -42 c56 -102 182 -120 253 -37 l20
24 -25 -21 c-39 -33 -65 -44 -108 -44 -53 0 -102 34 -131 93 l-23 47 -59 0
c-52 0 -59 2 -59 19 0 11 5 23 11 27 6 3 19 26 29 49 21 49 33 57 110 75 137
32 390 114 491 160 363 167 594 170 854 15 101 -60 136 -71 280 -84 99 -10
100 -10 134 -48 47 -54 91 -119 91 -136 0 -19 -36 -36 -99 -45 -50 -6 -55 -10
-66 -41 -21 -63 -104 -109 -174 -95 -34 7 -91 59 -91 83 0 8 -3 11 -7 7 -14
-14 31 -78 69 -97 77 -39 180 -10 221 62 24 42 27 44 100 54 97 13 113 73 47
172 -22 32 -55 74 -74 92 -32 31 -41 33 -152 47 -145 18 -166 24 -257 80 -116
72 -207 97 -367 100 -92 2 -156 -2 -200 -12z"/>
<path d="M1167 1195 c-31 -93 -58 -163 -61 -155 -2 8 -26 81 -53 163 -26 81
-50 147 -53 147 -4 0 -21 -95 -39 -212 -18 -116 -35 -218 -38 -225 -3 -9 3
-13 20 -13 24 0 25 4 46 137 12 75 22 138 24 139 1 1 22 -61 47 -137 24 -76
47 -139 51 -139 4 0 26 61 50 135 42 129 59 161 59 113 0 -13 8 -73 17 -135
16 -107 18 -113 40 -113 22 0 23 3 16 43 -3 23 -20 128 -38 232 l-31 190 -57
-170z"/>
<path d="M732 1245 c-7 -15 -10 -31 -7 -36 4 -5 2 -9 -3 -9 -12 0 -127 -248
-119 -256 14 -14 46 10 62 46 l18 40 66 0 66 0 16 -39 c15 -34 52 -60 63 -43
2 4 -8 32 -23 62 -14 30 -46 98 -70 150 -24 52 -46 98 -50 103 -4 4 -13 -4
-19 -18z"/>
<path d="M1543 1262 c-81 -2 -103 -6 -103 -17 0 -9 14 -15 43 -17 l42 -3 3
-143 c3 -142 3 -143 25 -140 21 3 22 7 25 146 3 141 3 143 25 142 42 -4 57 0
57 14 0 21 -3 21 -117 18z"/>
<path d="M1350 1099 l0 -160 23 3 c22 3 22 6 25 161 l3 157 -26 0 -25 0 0
-161z"/>
</g>
</svg>
